<svg width="512" height="512" fill="none" xmlns="http://www.w3.org/2000/svg"><rect width="512" height="512" rx="64" fill="#047857"/><path d="M270.766 98.5v7.734H256v97.032h-14.766v15.468h-22.5V233.5h-22.5v14.766h-15.468v15.468h-29.532v-15.468h-15.468V233.5H121v-30.234H105.531v90H121v15.468h14.766V323.5h15.468v14.766H166v15.468h14.766V413.5H211v-14.766h-14.766v-15.468H211V368.5h14.766v-14.766h15.468V368.5H256v45h30.234v-14.766h-15.468v-60.468h15.468V323.5H301V301h14.766v-52.734h15.468v15.468H346V233.5h-30.234v-30.234h60.468V188.5h-45v-14.766h75.235v-67.5H391V90.766H270.766V98.5zM301 121v7.734h-14.766v-15.468H301V121z" fill="#fff"/></svg>